<svg xmlns="http://www.w3.org/2000/svg" viewBox="0 0 2000 2000" fill="none"><path fill="#1E1E1E" d="M0 0h2000v2000H0z"/><path d="M2000 0H0v2000h2000V0z" fill="#ED714E"/><path opacity=".2" d="M1000 1950c524.67 0 950-425.33 950-950 0-524.671-425.33-950-950-950-524.671 0-950 425.329-950 950 0 524.67 425.329 950 950 950z" fill="url(#a)"/><path opacity=".4" d="M999.999 1812.5c448.731 0 812.501-363.77 812.501-812.5 0-448.731-363.77-812.5-812.501-812.5s-812.5 363.769-812.5 812.5c0 448.73 363.769 812.5 812.5 812.5z" fill="url(#b)"/><path opacity=".6" d="M1000 1675c372.79 0 675-302.21 675-675 0-372.792-302.21-675-675-675-372.793 0-675 302.208-675 675 0 372.79 302.207 675 675 675z" fill="url(#c)"/><path opacity=".8" d="M999.999 1537.5c296.851 0 537.501-240.65 537.501-537.5 0-296.853-240.65-537.5-537.501-537.5-296.853 0-537.5 240.647-537.5 537.5 0 296.85 240.647 537.5 537.5 537.5z" fill="url(#d)"/><path d="M999.999 1400C1220.91 1400 1400 1220.91 1400 1000c0-220.913-179.09-399.999-400.001-399.999-220.914 0-400 179.086-400 399.999 0 220.91 179.086 400 400 400z" fill="url(#e)"/><path opacity=".6" d="M274.64 637.34C474.76 235.7 962.57 72.33 1364.21 272.45s565.01 687.93 364.89 1089.57-687.93 565.01-1089.57 364.89" stroke="url(#f)" stroke-width="84.567" stroke-miterlimit="10" stroke-linecap="round"/><path opacity=".6" d="M1482.96 1239.38c-132.38 265.7-455.09 373.77-720.79 241.39S388.4 1025.68 520.78 759.98s455.09-373.77 720.79-241.39" stroke="url(#g)" stroke-width="84.567" stroke-miterlimit="10" stroke-linecap="round"/><path opacity=".5" d="M1000.5 1949.5c524.67 0 950-425.33 950-950 0-524.67-425.33-950-950-950-524.671 0-950 425.33-950 950 0 524.67 425.329 950 950 950z" stroke="url(#h)" stroke-width="1.057" stroke-miterlimit="10"/><path opacity=".625" d="M1000.5 1812c448.73 0 812.5-363.77 812.5-812.501S1449.23 187 1000.5 187C551.768 187 188 550.768 188 999.499 188 1448.23 551.768 1812 1000.5 1812z" stroke="url(#i)" stroke-width="1.057" stroke-miterlimit="10"/><path opacity=".75" d="M1000.5 1674.5c372.79 0 675-302.21 675-675 0-372.793-302.21-675-675-675-372.792 0-675 302.207-675 675 0 372.79 302.208 675 675 675z" stroke="url(#j)" stroke-width="1.057" stroke-miterlimit="10"/><path opacity=".875" d="M1000.5 1537c296.85 0 537.5-240.65 537.5-537.5 0-296.853-240.65-537.5-537.5-537.5C703.646 462 463 702.647 463 999.5c0 296.85 240.646 537.5 537.5 537.5z" stroke="url(#k)" stroke-width="1.057" stroke-miterlimit="10"/><path d="M1000.5 1399.5c220.91 0 400-179.09 400-400 0-220.914-179.09-400-400-400-220.914 0-400 179.086-400 400 0 220.91 179.086 400 400 400z" stroke="url(#l)" stroke-width="1.057" stroke-miterlimit="10"/><path d="M601 1040.35c5.523 0 10-4.48 10-10s-4.477-10-10-10-10 4.48-10 10 4.477 10 10 10zM1479 1254c5.52 0 10-4.48 10-10s-4.48-10-10-10-10 4.48-10 10 4.48 10 10 10zM271 649c5.523 0 10-4.477 10-10s-4.477-10-10-10-10 4.477-10 10 4.477 10 10 10zM1632 770c5.52 0 10-4.477 10-10s-4.48-10-10-10-10 4.477-10 10 4.48 10 10 10zM1950 991.909c5.52 0 10-4.477 10-10s-4.48-10-10-10-10 4.477-10 10 4.48 10 10 10z" fill="#fff"/><path d="M1122.9 1038.58c1.26-29.41-9.26-77.457-34.39-116.588-.66-1.011-1.78-.6-1.53.471 1.71 5.988 2.19 16.822-7.4 16.251-16.98-.991.29-37.288-37.2-62.06-.75-.491-1.63.18-1.22.981 2.6 4.806 4.24 19.876-1.63 25.062-4.7 4.166-13.41 3.125-21.88-10.383-14.12-22.509-9.04-46.741.31-61.93.7-1.142-.28-1.582-1.09-1.302-51.14 17.262-60.89 77.48-71.62 99.509-1.8 3.695-3.37 5.627-6.5 5.447-9.34-.551-2.78-20.426.4-27.365.45-.982-.68-1.502-1.28-.872-26.17 27.676-49.69 74.607-53.87 118.079.13-1.03.37-2.02.54-3.04-.53 3.3-.93 6.64-1.18 10.01v.02c-.1 1.33-.17 2.66-.24 3.98-.06 1.59-.12 3.18-.12 4.79 0 65.92 53.71 119.36 119.96 119.36 66.26 0 119.96-53.44 119.96-119.36.01-.35-.02-.7-.02-1.06zm-119.94 56.44c-30.73 0-55.64-24.8-55.64-55.36 0-30.58 24.91-55.367 55.64-55.367s55.64 24.797 55.64 55.367c.01 30.56-24.9 55.36-55.64 55.36z" fill="#EB4E27"/><defs><linearGradient id="g" x1="1483" y1="1262.5" x2="1264" y2="510" gradientUnits="userSpaceOnUse"><stop stop-color="#F1A391"/><stop offset="1" stop-color="#F1A391" stop-opacity="0"/></linearGradient><linearGradient id="a" x1="71.21" y1="71.21" x2="1847.48" y2="1847.48" gradientUnits="userSpaceOnUse"><stop offset=".004" stop-color="#F1A391"/><stop offset="1" stop-color="#ED714E"/></linearGradient><linearGradient id="c" x1="401.584" y1="401.584" x2="1622.62" y2="1622.62" gradientUnits="userSpaceOnUse"><stop offset=".004" stop-color="#F1A391"/><stop offset="1" stop-color="#ED714E"/></linearGradient><linearGradient id="d" x1="547.975" y1="547.976" x2="1503.94" y2="1503.94" gradientUnits="userSpaceOnUse"><stop offset=".004" stop-color="#F1A391"/><stop offset="1" stop-color="#ED714E"/></linearGradient><linearGradient id="e" x1="681.835" y1="681.837" x2="1381.09" y2="1381.09" gradientUnits="userSpaceOnUse"><stop offset=".004" stop-color="#F1A391"/><stop offset="1" stop-color="#ED714E"/></linearGradient><linearGradient id="f" x1="1044.59" y1="187" x2="1044.59" y2="1812.36" gradientUnits="userSpaceOnUse"><stop stop-color="#F1A391"/><stop offset="1" stop-color="#F1A391" stop-opacity="0"/></linearGradient><linearGradient id="b" x1="242.662" y1="242.663" x2="1737.14" y2="1737.14" gradientUnits="userSpaceOnUse"><stop offset=".004" stop-color="#F1A391"/><stop offset="1" stop-color="#ED714E"/></linearGradient><linearGradient id="h" x1="51" y1="999" x2="1951" y2="999" gradientUnits="userSpaceOnUse"><stop stop-color="#fff"/><stop offset="1" stop-color="#FFC0B6"/></linearGradient><linearGradient id="i" x1="188" y1="998.999" x2="1813" y2="998.999" gradientUnits="userSpaceOnUse"><stop stop-color="#fff"/><stop offset="1" stop-color="#FFC0B6"/></linearGradient><linearGradient id="j" x1="326" y1="999" x2="1676" y2="999" gradientUnits="userSpaceOnUse"><stop stop-color="#fff"/><stop offset="1" stop-color="#FFC0B6"/></linearGradient><linearGradient id="k" x1="463" y1="999" x2="1538" y2="999" gradientUnits="userSpaceOnUse"><stop stop-color="#fff"/><stop offset="1" stop-color="#FFC0B6"/></linearGradient><linearGradient id="l" x1="601" y1="998.999" x2="1401" y2="998.999" gradientUnits="userSpaceOnUse"><stop stop-color="#fff"/><stop offset="1" stop-color="#FFC0B6"/></linearGradient><linearGradient id="m" x1="848" y1="844" x2="1141" y2="1159" gradientUnits="userSpaceOnUse"><stop offset=".057" stop-color="#FCD2CA" stop-opacity=".7"/><stop offset="1" stop-color="#FCD2CA" stop-opacity=".2"/></linearGradient></defs></svg>